<svg id="visual" viewBox="0 0 600 900" width="600" height="900" xmlns="http://www.w3.org/2000/svg" xmlns:xlink="http://www.w3.org/1999/xlink" version="1.1"><rect x="0" y="0" width="600" height="900" fill="#00070E"></rect><defs><linearGradient id="grad1_0" x1="0%" y1="0%" x2="100%" y2="100%"><stop offset="30%" stop-color="#00070e" stop-opacity="1"></stop><stop offset="70%" stop-color="#00070e" stop-opacity="1"></stop></linearGradient></defs><defs><linearGradient id="grad2_0" x1="0%" y1="0%" x2="100%" y2="100%"><stop offset="30%" stop-color="#00070e" stop-opacity="1"></stop><stop offset="70%" stop-color="#00070e" stop-opacity="1"></stop></linearGradient></defs><g transform="translate(600, 0)"><path d="M0 432.7C-40.1 434.3 -80.2 435.9 -112 417.9C-143.7 399.9 -167.2 362.2 -195.5 338.6C-223.8 315 -257.1 305.5 -287.1 287.1C-317.1 268.7 -343.7 241.5 -365.5 211C-387.2 180.5 -404 146.7 -414.4 111C-424.8 75.3 -428.7 37.7 -432.7 0L0 0Z" fill="#FF3B85"></path></g><g transform="translate(0, 900)"><path d="M0 -432.7C37.8 -427 75.7 -421.3 109.5 -408.6C143.3 -395.9 173.1 -376.3 208 -360.3C242.9 -344.2 282.9 -331.8 304.1 -304.1C325.2 -276.3 327.5 -233.2 346.4 -200C365.3 -166.8 400.8 -143.7 417.9 -112C435.1 -80.3 433.9 -40.2 432.7 0L0 0Z" fill="#FF3B85"></path></g></svg>