<svg xmlns="http://www.w3.org/2000/svg" viewBox="0 0 14 28" fill="none">
<path d="M14.05 8.112L7.024 4.056 0 8.112V4.056L7.025 0l7.026 4.056v4.056h-.001z" fill="currentColor"/>
<path d="M 0 11.517999649047852 L 3.680000066757202 11.517999649047852 L 3.680000066757202 20.458999633789062 C 3.680000066757202 22.768999099731445 5.40500020980835 23.895000457763672 7.025000095367432 23.895000457763672 C 8.659000396728516 23.895000457763672 10.371000289916992 22.73900032043457 10.371000289916992 20.42799949645996 L 10.371000289916992 11.517999649047852 L 14.050999641418457 11.517999649047852 L 14.050999641418457 20.672000885009766 C 14.050999641418457 22.799999237060547 13.381999969482422 24.441999435424805 12.043999671936035 25.56800079345703 C 10.704999923706055 26.69300079345703 9.032999992370605 27.240999221801758 6.99399995803833 27.240999221801758 C 4.956999778747559 27.240999221801758 3.2839999198913574 26.694000244140625 1.9769999980926514 25.56800079345703 C 0.6690000295639038 24.44300079345703 0 22.86199951171875 0 20.76300048828125 L 0 11.517999649047852 Z M 7.024990081787109 17.57261085510254 " fill="currentColor"/></svg>